<?xml version="1.0" encoding="UTF-8" standalone="no"?>
<svg
   xmlns:dc="http://purl.org/dc/elements/1.1/"
   xmlns:cc="http://creativecommons.org/ns#"
   xmlns:rdf="http://www.w3.org/1999/02/22-rdf-syntax-ns#"
   xmlns:svg="http://www.w3.org/2000/svg"
   xmlns="http://www.w3.org/2000/svg"
   xmlns:sodipodi="http://sodipodi.sourceforge.net/DTD/sodipodi-0.dtd"
   xmlns:inkscape="http://www.inkscape.org/namespaces/inkscape"
   version="1.1"
   id="Layer_1"
   x="0px"
   y="0px"
   viewBox="0 0 638.29999 322.70001"
   xml:space="preserve"
   sodipodi:docname="day-93-programming.svg"
   inkscape:version="1.0.1 (3bc2e813f5, 2020-09-07)"
   width="638.29999"
   height="322.70001"><metadata
   id="metadata367"><rdf:RDF><cc:Work
       rdf:about=""><dc:format>image/svg+xml</dc:format><dc:type
         rdf:resource="http://purl.org/dc/dcmitype/StillImage" /><dc:title></dc:title></cc:Work></rdf:RDF></metadata><defs
   id="defs365" /><sodipodi:namedview
   pagecolor="#ffffff"
   bordercolor="#666666"
   borderopacity="1"
   objecttolerance="10"
   gridtolerance="10"
   guidetolerance="10"
   inkscape:pageopacity="0"
   inkscape:pageshadow="2"
   inkscape:window-width="1366"
   inkscape:window-height="705"
   id="namedview363"
   showgrid="false"
   inkscape:zoom="0.538"
   inkscape:cx="285.40443"
   inkscape:cy="172.83329"
   inkscape:window-x="-8"
   inkscape:window-y="-8"
   inkscape:window-maximized="1"
   inkscape:current-layer="Layer_1"
   inkscape:document-rotation="0"
   fit-margin-top="0"
   fit-margin-left="0"
   fit-margin-right="0"
   fit-margin-bottom="0" />
<style
   type="text/css"
   id="style2">
	.st0{fill:#EAECEF;}
	.st1{fill:#2D425E;}
	.st2{fill:#C9C9C9;}
	.st3{fill:#CECECE;}
	.st4{fill:#FFFFFF;}
	.st5{fill:none;stroke:#1F3969;stroke-width:4;stroke-linecap:round;stroke-linejoin:round;stroke-miterlimit:10;}
	.st6{fill:#FF3E3E;}
	.st7{opacity:0.28;fill:#1F3969;stroke:#1F3969;stroke-width:4;stroke-linecap:round;stroke-linejoin:round;stroke-miterlimit:10;}
	.st8{fill:#50B56F;}
	.st9{fill:#5F5AFF;}
	.st10{fill:#F6F9FD;}
	.st11{fill:#BFCFE2;}
	.st12{fill:#D0DDF0;}
	.st13{fill:#2AA1FF;}
	.st14{opacity:0.34;fill:none;stroke:#FFFFFF;stroke-width:2;stroke-linecap:round;stroke-linejoin:round;stroke-miterlimit:10;}
	.st15{opacity:0.34;}
	.st16{fill:none;stroke:#FFFFFF;stroke-width:2;stroke-linecap:round;stroke-linejoin:round;stroke-miterlimit:10;}
	.st17{fill:#1F3969;}
	.st18{fill:none;stroke:#FFFFFF;stroke-width:4;stroke-linecap:round;stroke-linejoin:round;stroke-miterlimit:10;}
	.st19{fill:none;stroke:#7BFFA0;stroke-width:4;stroke-linecap:round;stroke-linejoin:round;stroke-miterlimit:10;}
	.st20{fill:none;stroke:#9169FF;stroke-width:4;stroke-linecap:round;stroke-linejoin:round;stroke-miterlimit:10;}
	.st21{fill:none;stroke:#FFC47D;stroke-width:4;stroke-linecap:round;stroke-linejoin:round;stroke-miterlimit:10;}
	.st22{fill:none;stroke:#FF5757;stroke-width:4;stroke-linecap:round;stroke-linejoin:round;stroke-miterlimit:10;}
	.st23{fill:#FFA364;}
	.st24{fill:#FF5252;}
	.st25{fill:#6567C3;}
</style>


<g
   id="XMLID_34_"
   transform="translate(-160.2,-343.6)"
   inkscape:export-xdpi="96"
   inkscape:export-ydpi="96">
	<path
   id="XMLID_223_"
   class="st2"
   d="M 789.5,666.3 H 169.2 c -5,0 -9,-4 -9,-9 v 0 c 0,-5 4,-9 9,-9 h 620.3 c 5,0 9,4 9,9 v 0 c 0,5 -4,9 -9,9 z" />
	<g
   id="XMLID_19_">
		<g
   id="XMLID_163_">
			<path
   id="XMLID_178_"
   class="st3"
   d="m 285.9,573.3 c -9.6,0 -17.3,-7.8 -17.3,-17.3 0,-9.5 7.8,-17.3 17.3,-17.3 h 98 v 34.7 h -98 z" />
			<path
   id="XMLID_162_"
   class="st4"
   d="M 389.6,579.3 H 285.9 c -12.9,0 -23.3,-10.5 -23.3,-23.3 v 0 c 0,-12.9 10.5,-23.3 23.3,-23.3 h 103.7 z" />
			<line
   id="XMLID_164_"
   class="st5"
   x1="279.5"
   y1="550.59998"
   x2="383.89999"
   y2="550.59998" />
			<line
   id="XMLID_173_"
   class="st5"
   x1="279.5"
   y1="561.20001"
   x2="383.89999"
   y2="561.20001" />
			<path
   id="XMLID_179_"
   class="st5"
   d="m 285.9,573.3 c -9.6,0 -17.3,-7.8 -17.3,-17.3 0,-9.5 7.8,-17.3 17.3,-17.3 h 98 v 34.7 h -98 z" />
			<path
   id="XMLID_161_"
   class="st6"
   d="m 285.9,573.3 c -9.6,0 -17.3,-7.8 -17.3,-17.3 0,-9.5 7.8,-17.3 17.3,-17.3 h 99.7 l 4,-6 H 285.9 c -12.9,0 -23.3,10.5 -23.3,23.3 v 0 c 0,12.9 10.5,23.3 23.3,23.3 h 103.7 l -4,-6 z" />
			<path
   id="XMLID_182_"
   class="st5"
   d="m 285.9,573.3 c -9.6,0 -17.3,-7.8 -17.3,-17.3 0,-9.5 7.8,-17.3 17.3,-17.3 h 99.7 l 4,-6 H 285.9 c -12.9,0 -23.3,10.5 -23.3,23.3 v 0 c 0,12.9 10.5,23.3 23.3,23.3 h 103.7 l -4,-6 z" />
			<rect
   id="XMLID_224_"
   x="348.89999"
   y="532.59998"
   class="st7"
   width="18.4"
   height="46.700001" />
		</g>
		<g
   id="XMLID_160_">
			<path
   id="XMLID_157_"
   class="st8"
   d="M 378.9,617.8 H 189 c -3.7,0 -6.8,-3 -6.8,-6.8 v -25 c 0,-3.7 3,-6.8 6.8,-6.8 h 189.9 c 3.7,0 6.8,3 6.8,6.8 v 25 c 0,3.8 -3,6.8 -6.8,6.8 z" />
			<g
   id="g243">
				<path
   class="st4"
   d="m 240.3,599.8 h -2.6 v 5.5 H 236 V 592 h 4.3 c 3.1,0 4.6,1.7 4.6,3.9 0,2 -1.3,3.9 -4.6,3.9 z m 0,-1.5 c 2,0 2.8,-0.9 2.8,-2.4 0,-1.5 -0.8,-2.5 -2.8,-2.5 h -2.6 v 4.9 z"
   id="path231" />
				<path
   class="st4"
   d="m 249.7,592 h 1.9 l 3.3,6.7 3.3,-6.7 h 1.9 l -4.3,8.3 v 5 h -1.7 v -5 z"
   id="path233" />
				<path
   class="st4"
   d="m 264.9,592 h 9 v 1.4 h -3.6 v 11.9 h -1.7 V 593.4 H 265 V 592 Z"
   id="path235" />
				<path
   class="st4"
   d="m 288.4,599.3 h -6.8 v 6 h -1.7 V 592 h 1.7 v 5.8 h 6.8 V 592 h 1.7 v 13.3 h -1.7 z"
   id="path237" />
				<path
   class="st4"
   d="m 302.9,605.4 c -3.7,0 -6.7,-2.8 -6.7,-6.8 0,-4 2.9,-6.8 6.7,-6.8 3.8,0 6.7,2.8 6.7,6.8 -0.1,4 -3,6.8 -6.7,6.8 z m 0,-1.5 c 2.8,0 4.9,-2 4.9,-5.3 0,-3.3 -2.1,-5.3 -4.9,-5.3 -2.8,0 -4.9,2 -4.9,5.3 0,3.3 2.1,5.3 4.9,5.3 z"
   id="path239" />
				<path
   class="st4"
   d="m 326.1,592 v 13.3 h -1.7 l -7,-10.6 v 10.6 h -1.7 V 592 h 1.7 l 7,10.5 V 592 Z"
   id="path241" />
			</g>
			<path
   id="XMLID_146_"
   class="st5"
   d="M 378.9,617.8 H 189 c -3.7,0 -6.8,-3 -6.8,-6.8 v -25 c 0,-3.7 3,-6.8 6.8,-6.8 h 189.9 c 3.7,0 6.8,3 6.8,6.8 v 25 c 0,3.8 -3,6.8 -6.8,6.8 z" />
		</g>
		<path
   id="XMLID_246_"
   class="st7"
   d="m 378.9,579.3 h -30 v 15 c 0,9.4 7.6,17.1 17.1,17.1 h 19.7 c 0,-0.1 0,-0.2 0,-0.3 v -25 c 0,-3.8 -3,-6.8 -6.8,-6.8 z" />
		<path
   id="XMLID_35_"
   class="st3"
   d="m 432.4,625.6 h -220 c 1.3,3.2 2,7.2 2,11.4 0,4.2 -0.7,8.1 -2,11.4 h 219.9 c -1.3,-3.2 -2,-7.2 -2,-11.4 0.1,-4.3 0.8,-8.2 2.1,-11.4 z" />
		<rect
   id="XMLID_156_"
   x="206.5"
   y="619.5"
   class="st9"
   width="231.89999"
   height="6" />
		<rect
   id="XMLID_32_"
   x="206.5"
   y="619.5"
   class="st5"
   width="231.89999"
   height="6" />
		<rect
   id="XMLID_147_"
   x="206.5"
   y="648.29999"
   class="st10"
   width="231.89999"
   height="6" />
		<rect
   id="XMLID_39_"
   x="206.5"
   y="648.29999"
   class="st9"
   width="231.89999"
   height="6" />
		<rect
   id="XMLID_37_"
   x="206.5"
   y="648.29999"
   class="st5"
   width="231.89999"
   height="6" />
		<path
   id="XMLID_69_"
   class="st11"
   d="m 553.6,633 -3,-33.7 h -49.4 l -3,33.7 c -0.7,7.8 -5.4,15.3 -12.8,21.3 v 0.1 h 81 v -0.1 c -7.4,-6 -12.1,-13.5 -12.8,-21.3 z" />
		<polygon
   id="XMLID_33_"
   class="st7"
   points="550.6,599.3 501.2,599.3 499.4,619.5 552.4,619.5 " />
		<path
   id="XMLID_10_"
   class="st5"
   d="m 553.6,633 -3,-33.7 h -49.4 l -3,33.7 c -0.7,7.8 -5.4,15.3 -12.8,21.3 v 0.1 h 81 v -0.1 c -7.4,-6 -12.1,-13.5 -12.8,-21.3 z" />
		<path
   id="XMLID_13_"
   class="st4"
   d="m 683.9,604.3 h -316 c -6.6,0 -12,-5.4 -12,-12 v -206 c 0,-6.6 5.4,-12 12,-12 h 316 c 6.6,0 12,5.4 12,12 v 206 c 0,6.7 -5.4,12 -12,12 z" />
		<path
   id="XMLID_63_"
   class="st11"
   d="m 683.9,604.3 h -316 c -6.6,0 -12,-5.4 -12,-12 v -206 c 0,-6.6 5.4,-12 12,-12 h 316 c 6.6,0 12,5.4 12,12 v 206 c 0,6.7 -5.4,12 -12,12 z" />
		<path
   id="XMLID_4_"
   class="st5"
   d="m 683.9,604.3 h -316 c -6.6,0 -12,-5.4 -12,-12 v -206 c 0,-6.6 5.4,-12 12,-12 h 316 c 6.6,0 12,5.4 12,12 v 206 c 0,6.7 -5.4,12 -12,12 z" />
		
			<rect
   id="XMLID_68_"
   x="438.60001"
   y="325.60001"
   transform="rotate(90,525.91375,478.64185)"
   class="st10"
   width="174.60001"
   height="306" />
		<path
   id="XMLID_197_"
   class="st7"
   d="m 383.9,374.3 v 138.6 c 0,4.4 3.6,8 8,8 H 581 c 4.4,0 8,-3.6 8,-8 V 374.3 Z" />
		
			<rect
   id="XMLID_11_"
   x="438.60001"
   y="325.60001"
   transform="rotate(90,525.91375,478.64185)"
   class="st5"
   width="174.60001"
   height="306" />
		<line
   id="XMLID_9_"
   class="st5"
   x1="512.5"
   y1="585"
   x2="539.40002"
   y2="585" />
		<path
   id="XMLID_15_"
   class="st1"
   d="M 590,509.9 H 400.9 c -4.4,0 -8,-3.6 -8,-8 V 353.7 c 0,-4.4 3.6,-8 8,-8 H 590 c 4.4,0 8,3.6 8,8 V 502 c 0,4.4 -3.6,7.9 -8,7.9 z" />
		<path
   id="XMLID_17_"
   class="st5"
   d="M 598,365.1 H 392.9 v -11.5 c 0,-4.4 3.6,-8 8,-8 H 590 c 4.4,0 8,3.6 8,8 z" />
		<path
   id="XMLID_23_"
   class="st12"
   d="M 598,368.9 H 392.9 v -15.3 c 0,-4.4 3.6,-8 8,-8 H 590 c 4.4,0 8,3.6 8,8 z" />
		<path
   id="XMLID_18_"
   class="st5"
   d="M 598,368.9 H 392.9 v -15.3 c 0,-4.4 3.6,-8 8,-8 H 590 c 4.4,0 8,3.6 8,8 z" />
		<path
   id="XMLID_20_"
   class="st5"
   d="M 598,368.9 H 392.9 v -15.3 c 0,-4.4 3.6,-8 8,-8 H 590 c 4.4,0 8,3.6 8,8 z" />
		<path
   id="XMLID_12_"
   class="st5"
   d="M 590,509.9 H 400.9 c -4.4,0 -8,-3.6 -8,-8 V 353.7 c 0,-4.4 3.6,-8 8,-8 H 590 c 4.4,0 8,3.6 8,8 V 502 c 0,4.4 -3.6,7.9 -8,7.9 z" />
		<g
   id="XMLID_72_">
			<path
   id="XMLID_7_"
   class="st7"
   d="m 688.7,545.3 h -116 c -4.4,0 -8,-3.6 -8,-8 V 414.4 c 0,-4.4 3.6,-8 8,-8 h 116 c 4.4,0 8,3.6 8,8 v 122.9 c 0,4.5 -3.6,8 -8,8 z" />
			<path
   id="XMLID_16_"
   class="st13"
   d="m 696.7,538.3 h -116 c -4.4,0 -8,-3.6 -8,-8 V 407.4 c 0,-4.4 3.6,-8 8,-8 h 116 c 4.4,0 8,3.6 8,8 v 122.9 c 0,4.5 -3.6,8 -8,8 z" />
			<path
   id="XMLID_14_"
   class="st5"
   d="m 696.7,538.3 h -116 c -4.4,0 -8,-3.6 -8,-8 V 407.4 c 0,-4.4 3.6,-8 8,-8 h 116 c 4.4,0 8,3.6 8,8 v 122.9 c 0,4.5 -3.6,8 -8,8 z" />
			<path
   id="XMLID_75_"
   class="st14"
   d="m 679.4,437.5 h -81.6 c -2.9,0 -5.2,-2.3 -5.2,-5.2 v -7.8 c 0,-2.9 2.3,-5.2 5.2,-5.2 h 81.6 c 2.9,0 5.2,2.3 5.2,5.2 v 7.8 c 0,2.9 -2.3,5.2 -5.2,5.2 z" />
			<g
   id="XMLID_143_"
   class="st15">
				<path
   id="XMLID_78_"
   class="st16"
   d="M 643.6,466.8 H 598 c -2.9,0 -5.2,-2.3 -5.2,-5.2 v -7.8 c 0,-2.9 2.3,-5.2 5.2,-5.2 h 45.6 c 2.9,0 5.2,2.3 5.2,5.2 v 7.8 c -0.1,2.9 -2.4,5.2 -5.2,5.2 z" />
				<path
   id="XMLID_79_"
   class="st16"
   d="m 679.5,466.8 h -17.7 c -2.9,0 -5.2,-2.3 -5.2,-5.2 v -7.8 c 0,-2.9 2.3,-5.2 5.2,-5.2 h 17.7 c 2.9,0 5.2,2.3 5.2,5.2 v 7.8 c 0,2.9 -2.3,5.2 -5.2,5.2 z" />
			</g>
			<g
   id="XMLID_76_">
				<line
   id="XMLID_135_"
   class="st16"
   x1="592.70001"
   y1="497.20001"
   x2="684.59998"
   y2="497.20001" />
				<line
   id="XMLID_136_"
   class="st16"
   x1="592.70001"
   y1="508"
   x2="684.59998"
   y2="508" />
				<line
   id="XMLID_138_"
   class="st16"
   x1="592.70001"
   y1="518.79999"
   x2="648.70001"
   y2="518.79999" />
			</g>
		</g>
		<circle
   id="XMLID_24_"
   class="st17"
   cx="413"
   cy="357.29999"
   r="4" />
		<circle
   id="XMLID_28_"
   class="st17"
   cx="426.89999"
   cy="357.29999"
   r="4" />
		<circle
   id="XMLID_38_"
   class="st17"
   cx="440.79999"
   cy="357.29999"
   r="4" />
		<g
   id="XMLID_61_">
			<line
   id="XMLID_54_"
   class="st18"
   x1="510.70001"
   y1="387.39999"
   x2="523.70001"
   y2="387.39999" />
			<line
   id="XMLID_66_"
   class="st19"
   x1="444.79999"
   y1="387.39999"
   x2="501.10001"
   y2="387.39999" />
			<line
   id="XMLID_29_"
   class="st20"
   x1="417"
   y1="387.39999"
   x2="436.79999"
   y2="387.39999" />
		</g>
		<g
   id="XMLID_42_">
			<line
   id="XMLID_62_"
   class="st20"
   x1="442.79999"
   y1="485.89999"
   x2="485.79999"
   y2="485.89999" />
			<line
   id="XMLID_30_"
   class="st19"
   x1="417"
   y1="485.89999"
   x2="430.89999"
   y2="485.89999" />
		</g>
		<g
   id="XMLID_27_">
			<line
   id="XMLID_60_"
   class="st18"
   x1="501.10001"
   y1="399.70001"
   x2="509.20001"
   y2="399.70001" />
			<line
   id="XMLID_45_"
   class="st20"
   x1="464.29999"
   y1="399.70001"
   x2="491.5"
   y2="399.70001" />
			<line
   id="XMLID_47_"
   class="st21"
   x1="426.89999"
   y1="399.70001"
   x2="454.60001"
   y2="399.70001" />
		</g>
		<g
   id="XMLID_49_">
			<line
   id="XMLID_59_"
   class="st18"
   x1="469.79999"
   y1="412"
   x2="493.70001"
   y2="412" />
			<line
   id="XMLID_50_"
   class="st22"
   x1="439.79999"
   y1="412"
   x2="462.29999"
   y2="412" />
		</g>
		<g
   id="XMLID_65_">
			<line
   id="XMLID_58_"
   class="st18"
   x1="473"
   y1="424.29999"
   x2="477.89999"
   y2="424.29999" />
			<line
   id="XMLID_70_"
   class="st20"
   x1="453.20001"
   y1="424.29999"
   x2="464.29999"
   y2="424.29999" />
			<line
   id="XMLID_67_"
   class="st19"
   x1="426.89999"
   y1="424.29999"
   x2="444.79999"
   y2="424.29999" />
		</g>
		<g
   id="XMLID_73_">
			<line
   id="XMLID_77_"
   class="st21"
   x1="465.29999"
   y1="436.70001"
   x2="497.20001"
   y2="436.70001" />
			<line
   id="XMLID_74_"
   class="st22"
   x1="426.89999"
   y1="436.70001"
   x2="455.5"
   y2="436.70001" />
		</g>
		<g
   id="XMLID_80_">
			<line
   id="XMLID_64_"
   class="st20"
   x1="502.20001"
   y1="449"
   x2="519.5"
   y2="449" />
			<line
   id="XMLID_84_"
   class="st22"
   x1="465.29999"
   y1="449"
   x2="493"
   y2="449" />
			<line
   id="XMLID_81_"
   class="st19"
   x1="439.79999"
   y1="449"
   x2="455.5"
   y2="449" />
		</g>
		<g
   id="XMLID_87_">
			<line
   id="XMLID_95_"
   class="st18"
   x1="477.89999"
   y1="461.29999"
   x2="493"
   y2="461.29999" />
			<line
   id="XMLID_90_"
   class="st20"
   x1="439.79999"
   y1="461.29999"
   x2="467.5"
   y2="461.29999" />
		</g>
		<g
   id="XMLID_98_">
			<line
   id="XMLID_71_"
   class="st18"
   x1="517.20001"
   y1="473.60001"
   x2="534.5"
   y2="473.60001" />
			<line
   id="XMLID_102_"
   class="st21"
   x1="464.29999"
   y1="473.60001"
   x2="507.79999"
   y2="473.60001" />
			<line
   id="XMLID_99_"
   class="st18"
   x1="426.89999"
   y1="473.60001"
   x2="454.60001"
   y2="473.60001" />
		</g>
		<line
   id="XMLID_145_"
   class="st5"
   x1="214.89999"
   y1="632.5"
   x2="430.39999"
   y2="632.5" />
		<line
   id="XMLID_151_"
   class="st5"
   x1="214.89999"
   y1="640.5"
   x2="430.39999"
   y2="640.5" />
		<path
   id="XMLID_158_"
   class="st5"
   d="m 432.4,625.6 h -220 c 1.3,3.2 2,7.2 2,11.4 0,4.2 -0.7,8.1 -2,11.4 h 219.9 c -1.3,-3.2 -2,-7.2 -2,-11.4 0.1,-4.3 0.8,-8.2 2.1,-11.4 z" />
	</g>
	<g
   id="XMLID_222_">
		<g
   id="XMLID_174_">
			
				<rect
   id="XMLID_177_"
   x="722.79999"
   y="544.40002"
   transform="matrix(0.9932,-0.1166,0.1166,0.9932,-62.746,88.7942)"
   class="st23"
   width="9.8000002"
   height="72.599998" />
			
				<rect
   id="XMLID_31_"
   x="719"
   y="544.70001"
   transform="matrix(0.9932,-0.1166,0.1166,0.9932,-58.9937,88.1297)"
   class="st13"
   width="9.8000002"
   height="7.4000001" />
			
				<rect
   id="XMLID_217_"
   x="719"
   y="544.70001"
   transform="matrix(0.9932,-0.1166,0.1166,0.9932,-58.9937,88.1297)"
   class="st5"
   width="9.8000002"
   height="7.4000001" />
			
				<rect
   id="XMLID_22_"
   x="722.79999"
   y="544.40002"
   transform="matrix(0.9932,-0.1166,0.1166,0.9932,-62.746,88.7942)"
   class="st5"
   width="9.8000002"
   height="72.599998" />
		</g>
		<g
   id="XMLID_189_">
			
				<rect
   id="XMLID_218_"
   x="741.40002"
   y="558.09998"
   transform="matrix(0.9941,0.1081,-0.1081,0.9941,68.6015,-77.1711)"
   class="st24"
   width="9.8000002"
   height="72.599998" />
			
				<rect
   id="XMLID_214_"
   x="741.40002"
   y="558.09998"
   transform="matrix(0.9941,0.1081,-0.1081,0.9941,68.6015,-77.1711)"
   class="st5"
   width="9.8000002"
   height="72.599998" />
			
				<rect
   id="XMLID_220_"
   x="745"
   y="558.29999"
   transform="matrix(0.9941,0.1081,-0.1081,0.9941,65.1167,-77.742)"
   class="st1"
   width="9.8000002"
   height="7.4000001" />
			
				<rect
   id="XMLID_211_"
   x="745"
   y="558.29999"
   transform="matrix(0.9941,0.1081,-0.1081,0.9941,65.1167,-77.742)"
   class="st5"
   width="9.8000002"
   height="7.4000001" />
		</g>
		<polygon
   id="XMLID_26_"
   class="st25"
   points="767.5,594.4 761.1,654.6 721.8,654.6 715.4,594.4 " />
		<polygon
   id="XMLID_233_"
   class="st25"
   points="748.9,654.6 761.1,654.6 767.5,594.4 715.4,594.4 715.5,595.5 755.2,595.5 " />
		<polygon
   id="XMLID_21_"
   class="st5"
   points="767.5,594.4 761.1,654.6 721.8,654.6 715.4,594.4 " />
	</g>
</g>

</svg>
